/* XPM */
static char * close_press_xpm[] = {
"21 21 188 2",
"  	c None",
". 	c #F3F7FB",
"+ 	c #CACFD3",
"@ 	c #485867",
"# 	c #FFFFFF",
"$ 	c #F0F0F0",
"% 	c #A8A8A7",
"& 	c #5F5F5D",
"* 	c #242422",
"= 	c #101010",
"- 	c #232323",
"; 	c #575759",
"> 	c #E9E9E9",
", 	c #706667",
"' 	c #423D41",
") 	c #9B9599",
"! 	c #8D8D8D",
"~ 	c #999999",
"{ 	c #8B8B8B",
"] 	c #8F8289",
"^ 	c #53484E",
"/ 	c #695E64",
"( 	c #F1F1F1",
"_ 	c #696170",
": 	c #51444A",
"< 	c #6D5D5D",
"[ 	c #A5908F",
"} 	c #B2A6A7",
"| 	c #B29A9B",
"1 	c #B2A3A5",
"2 	c #A68D8F",
"3 	c #76605E",
"4 	c #4D3C39",
"5 	c #635D5F",
"6 	c #FEFEFE",
"7 	c #ACA4A0",
"8 	c #3A1D27",
"9 	c #4E282C",
"0 	c #6B3A3D",
"a 	c #834E52",
"b 	c #A8757A",
"c 	c #A27176",
"d 	c #A47177",
"e 	c #804E53",
"f 	c #713D40",
"g 	c #512626",
"h 	c #3C1A1D",
"i 	c #B7A7A9",
"j 	c #C2C9D0",
"k 	c #714F4D",
"l 	c #4B2126",
"m 	c #602426",
"n 	c #4E0707",
"o 	c #450000",
"p 	c #682628",
"q 	c #7E3D43",
"r 	c #65242A",
"s 	c #420003",
"t 	c #4E0608",
"u 	c #692628",
"v 	c #511F21",
"w 	c #7A5052",
"x 	c #EAEAEA",
"y 	c #541E1C",
"z 	c #672A2E",
"A 	c #7A2B2A",
"B 	c #6B110D",
"C 	c #610804",
"D 	c #560B09",
"E 	c #652120",
"F 	c #510D0C",
"G 	c #5A0F0D",
"H 	c #660F0E",
"I 	c #7B2827",
"J 	c #6A2626",
"K 	c #5D1F20",
"L 	c #EFEFEF",
"M 	c #51100C",
"N 	c #6C2628",
"O 	c #8B312D",
"P 	c #9A3930",
"Q 	c #963930",
"R 	c #63170F",
"S 	c #5B1712",
"T 	c #59150F",
"U 	c #883C37",
"V 	c #973C36",
"W 	c #8C302C",
"X 	c #6E2121",
"Y 	c #5A0E0E",
"Z 	c #FDFDFD",
"` 	c #67201A",
" .	c #793230",
"..	c #9C433A",
"+.	c #AD4C3F",
"@.	c #993F30",
"#.	c #6C2517",
"$.	c #672A1D",
"%.	c #64241A",
"&.	c #863F35",
"*.	c #AA5248",
"=.	c #9E453E",
"-.	c #7B302C",
";.	c #6E1B17",
">.	c #782F26",
",.	c #7B3D3A",
"'.	c #9D4A41",
").	c #9E4435",
"!.	c #77210F",
"~.	c #6B2414",
"{.	c #78392C",
"].	c #6B2B1F",
"^.	c #6C251B",
"/.	c #9E493E",
"(.	c #9F4A41",
"_.	c #803935",
":.	c #832C25",
"<.	c #E5E5E5",
"[.	c #876E63",
"}.	c #683735",
"|.	c #904941",
"1.	c #762417",
"2.	c #6D1B0B",
"3.	c #A1574C",
"4.	c #B2736B",
"5.	c #99534C",
"6.	c #621711",
"7.	c #77271E",
"8.	c #994E45",
"9.	c #6A302D",
"0.	c #915650",
"a.	c #BFBFBF",
"b.	c #4E2A2B",
"c.	c #804943",
"d.	c #8A493E",
"e.	c #A25C4F",
"f.	c #B2766E",
"g.	c #B2807B",
"h.	c #B27874",
"i.	c #9C5753",
"j.	c #8D4741",
"k.	c #884945",
"l.	c #4E2222",
"m.	c #9F7873",
"n.	c #F7F7F7",
"o.	c #AFACAA",
"p.	c #4E363A",
"q.	c #4E2C2A",
"r.	c #845851",
"s.	c #9F6C66",
"t.	c #B28583",
"u.	c #B28484",
"v.	c #B28688",
"w.	c #A46C6D",
"x.	c #905A59",
"y.	c #5D3030",
"z.	c #58373C",
"A.	c #A99F9D",
"B.	c #E8E8E8",
"C.	c #B4B4B4",
"D.	c #493739",
"E.	c #442C2B",
"F.	c #684948",
"G.	c #765353",
"H.	c #886266",
"I.	c #734C50",
"J.	c #694346",
"K.	c #492628",
"L.	c #59393D",
"M.	c #8F8085",
"N.	c #DEDEDE",
"O.	c #A2A2A2",
"P.	c #9B9B9B",
"Q.	c #685D5D",
"R.	c #43322F",
"S.	c #412F30",
"T.	c #402E31",
"U.	c #525449",
"V.	c #9C9C9C",
"W.	c #E0E0E0",
"X.	c #A9ACAE",
"Y.	c #A6A6A6",
"Z.	c #A3A3A3",
"`.	c #A4A4A4",
" +	c #A7A7A7",
".+	c #A3ABAB",
"++	c #D9D9D9",
"@+	c #CECECE",
". . . . . . . . . . . . . . + @ @ @ @ @ @ ",
"# # # # # # # # # # # # # # # # # + @ @ @ ",
"# # # # # # # # # # # # # # # # # # + @ @ ",
"$ $ $ $ $ $ $ % & * = - ; % $ $ $ $ $ @ @ ",
"> > > > > > , ' ) ! ~ { ] ^ / > > > > @ @ ",
"( ( ( ( ( _ : < [ } | 1 2 3 4 5 ( ( ( @ @ ",
"6 6 6 6 7 8 9 0 a b c d e f g h i 6 6 j j ",
"( ( ( ( k l m n o p q r s t u v w ( ( ( ( ",
"x x x x y z A B C D E F G H I J K x x x x ",
"L L L L M N O P Q R S T U V W X Y L L L L ",
"Z Z Z Z `  ...+.@.#.$.%.&.*.=.-.;.Z Z Z Z ",
"L L L L >.,.'.).!.~.{.].^./.(._.:.L L L L ",
"<.<.<.<.[.}.|.1.2.3.4.5.6.7.8.9.0.<.<.<.<.",
"x x x x a.b.c.d.e.f.g.h.i.j.k.l.m.x x x x ",
"n.n.n.n.o.p.q.r.s.t.u.v.w.x.y.z.A.n.n.n.n.",
"B.B.B.B.B.C.D.E.F.G.H.I.J.K.L.M.B.B.B.B.B.",
"N.N.N.N.N.N.O.P.Q.R.S.T.U.V.O.N.N.N.N.N.N.",
"W.W.W.W.W.W.W.X.Y.Z.O.`. +.+W.W.W.W.W.W.W.",
"x x x x x x x x x x x x x x x x x x x x x ",
"++++++++++++++++++++++++++++++++++++++++++",
"@+@+@+@+@+@+@+@+@+@+@+@+@+@+@+@+@+@+@+@+@+"};
