/* XPM */
static char * close_xpm[] = {
"21 21 184 2",
"  	c None",
". 	c #F3F7FB",
"+ 	c #CACFD3",
"@ 	c #485867",
"# 	c #FFFFFF",
"$ 	c #F0F0F0",
"% 	c #A8A8A7",
"& 	c #5F5F5D",
"* 	c #242422",
"= 	c #101010",
"- 	c #232323",
"; 	c #575759",
"> 	c #E9E9E9",
", 	c #706667",
"' 	c #423D41",
") 	c #9B9599",
"! 	c #C8BDC3",
"~ 	c #D7CAD1",
"{ 	c #CEBFC6",
"] 	c #8F8289",
"^ 	c #53484E",
"/ 	c #695E64",
"( 	c #F1F1F1",
"_ 	c #75746F",
": 	c #67444A",
"< 	c #A89694",
"[ 	c #DBC7C6",
"} 	c #F2DDDC",
"| 	c #F9E1E1",
"1 	c #FAE0E1",
"2 	c #E7CDCE",
"3 	c #9D8585",
"4 	c #624A4A",
"5 	c #7C716D",
"6 	c #FEFEFE",
"7 	c #ACA4A0",
"8 	c #4D2627",
"9 	c #974B55",
"0 	c #B77A75",
"a 	c #D1948F",
"b 	c #E2A5A0",
"c 	c #D89994",
"d 	c #D59691",
"e 	c #B87773",
"f 	c #93524E",
"g 	c #461E1C",
"h 	c #B7A7A9",
"i 	c #C2C9D0",
"j 	c #714F4D",
"k 	c #782C30",
"l 	c #B13F47",
"m 	c #A93832",
"n 	c #BA4943",
"o 	c #C1524B",
"p 	c #C5564F",
"q 	c #B94842",
"r 	c #AC3632",
"s 	c #AE3733",
"t 	c #7A3331",
"u 	c #7A5052",
"v 	c #EAEAEA",
"w 	c #541E1C",
"x 	c #9F3738",
"y 	c #A61E22",
"z 	c #C43932",
"A 	c #D24C43",
"B 	c #D04D43",
"C 	c #CC4C41",
"D 	c #DC594F",
"E 	c #D54F46",
"F 	c #BF342D",
"G 	c #B52620",
"H 	c #9D3735",
"I 	c #5D1F20",
"J 	c #EFEFEF",
"K 	c #51100C",
"L 	c #B53F3B",
"M 	c #CD3E36",
"N 	c #D65446",
"O 	c #E16354",
"P 	c #EA7261",
"Q 	c #E3705D",
"R 	c #E26F5C",
"S 	c #DD6453",
"T 	c #D95749",
"U 	c #CD4539",
"V 	c #B23531",
"W 	c #5A0E0E",
"X 	c #FDFDFD",
"Y 	c #67201A",
"Z 	c #B94035",
"` 	c #DE5542",
" .	c #E66A5E",
"..	c #E87264",
"+.	c #F78978",
"@.	c #F68F7C",
"#.	c #F58C79",
"$.	c #E87968",
"%.	c #E3695C",
"&.	c #D6564B",
"*.	c #CD3F3B",
"=.	c #6E1B17",
"-.	c #782F26",
";.	c #C34B3B",
">.	c #E9674D",
",.	c #F4736D",
"'.	c #FF867E",
").	c #FF968B",
"!.	c #FD9184",
"~.	c #FF978A",
"{.	c #FE897F",
"].	c #F97A73",
"^.	c #EE6763",
"/.	c #D13C36",
"(.	c #832C25",
"_.	c #E5E5E5",
":.	c #876E63",
"<.	c #95332A",
"[.	c #FF6F6F",
"}.	c #F28777",
"|.	c #FF9B8D",
"1.	c #FFA198",
"2.	c #FFA49D",
"3.	c #FFA09A",
"4.	c #FF9690",
"5.	c #FF8B82",
"6.	c #F0766B",
"7.	c #A03837",
"8.	c #915650",
"9.	c #BFBFBF",
"0.	c #954641",
"a.	c #D75B5B",
"b.	c #FFA799",
"c.	c #FFB49F",
"d.	c #F1B9A0",
"e.	c #F3B9A1",
"f.	c #FEB09C",
"g.	c #FD9185",
"h.	c #E4655E",
"i.	c #8E4443",
"j.	c #9F7873",
"k.	c #F7F7F7",
"l.	c #AFACAA",
"m.	c #937C7B",
"n.	c #8A3C3C",
"o.	c #F07879",
"p.	c #FE958F",
"q.	c #FFAD9E",
"r.	c #FFBBA5",
"s.	c #FEBAA3",
"t.	c #F2A190",
"u.	c #D46F67",
"v.	c #AD3B3A",
"w.	c #7A5354",
"x.	c #A99F9D",
"y.	c #E8E8E8",
"z.	c #A4A4A4",
"A.	c #857576",
"B.	c #573B30",
"C.	c #8E6764",
"D.	c #BD7D7D",
"E.	c #EF7C81",
"F.	c #D66569",
"G.	c #994845",
"H.	c #6E463C",
"I.	c #5F5242",
"J.	c #8F8085",
"K.	c #DEDEDE",
"L.	c #A2A2A2",
"M.	c #9B9B9B",
"N.	c #685D5D",
"O.	c #463F37",
"P.	c #474538",
"Q.	c #4A4C3E",
"R.	c #525449",
"S.	c #9C9C9C",
"T.	c #E0E0E0",
"U.	c #A9ACAE",
"V.	c #A6A6A6",
"W.	c #A3A3A3",
"X.	c #A7A7A7",
"Y.	c #A3ABAB",
"Z.	c #D9D9D9",
"`.	c #CECECE",
". . . . . . . . . . . . . . + @ @ @ @ @ @ ",
". # # # # # # # # # # # # # # # # + @ @ @ ",
". # # # # # # # # # # # # # # # # # + @ @ ",
". $ $ $ $ $ $ % & * = - ; % $ $ $ $ $ @ @ ",
". > > > > > , ' ) ! ~ { ] ^ / > > > > @ @ ",
". ( ( ( ( _ : < [ } | 1 2 3 4 5 ( ( ( @ @ ",
". 6 6 6 7 8 9 0 a b b c d e f g h 6 6 i i ",
". ( ( ( j k l m n o p p q r s t u ( ( ( ( ",
". v v v w x y z A B C D E F G H I v v v v ",
". J J J K L M N O P Q R S T U V W J J J J ",
". X X X Y Z `  ...+.@.#.$.%.&.*.=.X X X X ",
". J J J -.;.>.,.'.).!.~.{.].^./.(.J J J J ",
". _._._.:.<.[.}.|.1.2.3.4.5.6.7.8._._._._.",
". v v v 9.0.a.5.b.c.d.e.f.g.h.i.j.v v v v ",
". k.k.k.l.m.n.o.p.q.r.s.t.u.v.w.x.k.k.k.k.",
". y.y.y.y.z.A.B.C.D.E.F.G.H.I.J.y.y.y.y.y.",
". K.K.K.K.K.L.M.N.O.P.Q.R.S.L.K.K.K.K.K.K.",
". T.T.T.T.T.T.U.V.W.L.z.X.Y.T.T.T.T.T.T.T.",
". v v v v v v v v v v v v v v v v v v v v ",
". Z.Z.Z.Z.Z.Z.Z.Z.Z.Z.Z.Z.Z.Z.Z.Z.Z.Z.Z.Z.",
". `.`.`.`.`.`.`.`.`.`.`.`.`.`.`.`.`.`.`.`."};
