/* XPM */
static char * stick_unfocus_xpm[] = {
"21 21 172 2",
"  	c #6C7F94",
". 	c #586775",
"+ 	c #485867",
"@ 	c #6B7E93",
"# 	c #6A7D93",
"$ 	c #6C7F95",
"% 	c #6D7F95",
"& 	c #6D8096",
"* 	c #6D8095",
"= 	c #61748B",
"- 	c #687B90",
"; 	c #435870",
"> 	c #314862",
", 	c #334962",
"' 	c #283D56",
") 	c #293E57",
"! 	c #314761",
"~ 	c #2F4560",
"{ 	c #455A72",
"] 	c #687B91",
"^ 	c #5D7188",
"/ 	c #62768D",
"( 	c #4A6077",
"_ 	c #394F68",
": 	c #3F556E",
"< 	c #53687F",
"[ 	c #6A7C91",
"} 	c #697B91",
"| 	c #596D83",
"1 	c #455A73",
"2 	c #374D67",
"3 	c #4A5F78",
"4 	c #5E7189",
"5 	c #5E7188",
"6 	c #66798F",
"7 	c #4C6079",
"8 	c #3A5069",
"9 	c #485E76",
"0 	c #8495A7",
"a 	c #909FB0",
"b 	c #8595A8",
"c 	c #798B9F",
"d 	c #51657D",
"e 	c #4E637B",
"f 	c #4A5F77",
"g 	c #667990",
"h 	c #6E8196",
"i 	c #41566F",
"j 	c #384E68",
"k 	c #445972",
"l 	c #5F7389",
"m 	c #6D8094",
"n 	c #7D8EA2",
"o 	c #8796A9",
"p 	c #8293A6",
"q 	c #8292A6",
"r 	c #798A9E",
"s 	c #485D76",
"t 	c #6F8296",
"u 	c #65788E",
"v 	c #556981",
"w 	c #5E7288",
"x 	c #5D7187",
"y 	c #5F7289",
"z 	c #62758B",
"A 	c #62758C",
"B 	c #63768C",
"C 	c #536880",
"D 	c #40566F",
"E 	c #354B64",
"F 	c #697C92",
"G 	c #5C6F86",
"H 	c #4D6179",
"I 	c #5A6E85",
"J 	c #576B82",
"K 	c #63778D",
"L 	c #62768B",
"M 	c #576C83",
"N 	c #586D84",
"O 	c #465C73",
"P 	c #344A63",
"Q 	c #60738A",
"R 	c #5B6F86",
"S 	c #5D7289",
"T 	c #5B6E85",
"U 	c #65788D",
"V 	c #697C91",
"W 	c #687A90",
"X 	c #64778C",
"Y 	c #5D7288",
"Z 	c #445A72",
"` 	c #3E536C",
" .	c #5E7289",
"..	c #667A90",
"+.	c #697C93",
"@.	c #415770",
"#.	c #6B7D92",
"$.	c #6A7D92",
"%.	c #677A8F",
"&.	c #75869B",
"*.	c #75879B",
"=.	c #6E8195",
"-.	c #66798E",
";.	c #677B91",
">.	c #718398",
",.	c #6D7F94",
"'.	c #7A8BA0",
").	c #7E8EA2",
"!.	c #788A9E",
"~.	c #728499",
"{.	c #546880",
"].	c #425871",
"^.	c #5C7087",
"/.	c #4F647C",
"(.	c #77899C",
"_.	c #7A8B9F",
":.	c #7C8CA1",
"<.	c #7F90A3",
"[.	c #8696A8",
"}.	c #8192A5",
"|.	c #7C8EA1",
"1.	c #495E77",
"2.	c #415771",
"3.	c #5B6F87",
"4.	c #3D536C",
"5.	c #4D637B",
"6.	c #708298",
"7.	c #78899D",
"8.	c #8091A4",
"9.	c #8D9CAD",
"0.	c #8E9EAE",
"a.	c #8697A8",
"b.	c #708297",
"c.	c #4D627B",
"d.	c #3E556D",
"e.	c #60748B",
"f.	c #445A73",
"g.	c #5A6E84",
"h.	c #65798E",
"i.	c #8898AA",
"j.	c #8C9CAD",
"k.	c #7F91A4",
"l.	c #8293A5",
"m.	c #6F8297",
"n.	c #566B82",
"o.	c #50657C",
"p.	c #64778E",
"q.	c #64778D",
"r.	c #4C6179",
"s.	c #3E546D",
"t.	c #53677F",
"u.	c #75879C",
"v.	c #77889D",
"w.	c #7B8CA0",
"x.	c #677A90",
"y.	c #4D637A",
"z.	c #596D84",
"A.	c #324862",
"B.	c #3A506A",
"C.	c #64768C",
"D.	c #394E68",
"E.	c #304761",
"F.	c #576B83",
"G.	c #5E728A",
"H.	c #42576F",
"I.	c #314760",
"J.	c #3B516B",
"K.	c #2E445E",
"L.	c #304660",
"M.	c #435872",
"N.	c #566A83",
"O.	c #60748A",
"                            . + + + + + + ",
"@ @ @ @ @ # $ % $ & & % * $ # @ @ . + + + ",
"= = = = = - ; > , ' ) ! ~ { ] = = = . + + ",
"^ ^ ^ ^ / ( _ : < [ } | 1 2 3 / ^ ^ ^ + + ",
"4 4 5 6 7 8 9 # 0 a b c } d e f g 5 4 + + ",
"@ @ h i j k l m n o p q r l s 2 k t @ . . ",
"u u ] , i v w x y z A B z x C D E F u u u ",
"G G y ! H I J l K L L B 5 M N O P Q G G G ",
"R R S 8 T U A - V - - V W X Y Z `  .R R R ",
"....+.@.L #.$.%.h &.*.=.-.[ F J k # ......",
"u u ;.D M >.$.,.'.).n !.~.t u {.].] u u u ",
"^.^. .D /.c (._.:.<.[.}.n |.V 1.2.y ^.^.^.",
"3.3. .4.5.6.7.c 8.9.0.a.}.n b.c.d. .3.3.3.",
"l l e.e f.g.h.(.i.j.k.l.i.m.n.f.o.e.l l l ",
"p.p.q.# r.s.t.@ u.v.n w.x.o.4.y.$.q.p.p.p.",
"z.z.z.z.e.s.A.B.< g.C.T D.E.: = N z.z.z.z.",
"F.F.F.F.F.G.H.I.J.j K.L.A.M.G.N.F.F.F.F.F.",
"R R R R R R w l w  .l l l 5 R R R R R R R ",
"O.O.O.O.O.O.O.O.O.O.O.O.O.O.O.O.O.O.O.O.O.",
"< < < < < < < < < < < < < < < < < < < < < ",
"t.t.t.t.t.t.t.t.t.t.t.t.t.t.t.t.t.t.t.t.t."};
