/* XPM */
static char * icon_xpm[] = {
"21 21 197 2",
"  	c None",
". 	c #F3F7FB",
"+ 	c #FFFFFF",
"@ 	c #F0F0F0",
"# 	c #A4A4A2",
"$ 	c #5B5B59",
"% 	c #252523",
"& 	c #090A05",
"* 	c #2C2C2C",
"= 	c #565656",
"- 	c #B3B2B2",
"; 	c #E9E9E9",
"> 	c #676067",
", 	c #434144",
"' 	c #8A8A8C",
") 	c #BFBEC4",
"! 	c #CECCD7",
"~ 	c #C4B3C3",
"{ 	c #908F94",
"] 	c #2C3836",
"^ 	c #676E74",
"/ 	c #F1F1F1",
"( 	c #6B706A",
"_ 	c #3F4A3C",
": 	c #8C9B86",
"< 	c #C6D5C0",
"[ 	c #D6E3CF",
"} 	c #EDF8E7",
"| 	c #E4E6DB",
"1 	c #C8D7C2",
"2 	c #8FA78D",
"3 	c #3B5041",
"4 	c #63676A",
"5 	c #FEFEFE",
"6 	c #999894",
"7 	c #243D1F",
"8 	c #4A703F",
"9 	c #7AA369",
"0 	c #A5CB8E",
"a 	c #B9DB9E",
"b 	c #ABCB8C",
"c 	c #B7D49E",
"d 	c #98BF80",
"e 	c #7AA868",
"f 	c #42693A",
"g 	c #253D27",
"h 	c #959494",
"i 	c #455441",
"j 	c #2F5C23",
"k 	c #4F8F39",
"l 	c #569837",
"m 	c #6AA644",
"n 	c #6CA33D",
"o 	c #74A93F",
"p 	c #72AA49",
"q 	c #69A63F",
"r 	c #53942E",
"s 	c #5A9543",
"t 	c #376131",
"u 	c #3A4F3E",
"v 	c #EAEAEA",
"w 	c #1F3818",
"x 	c #40802C",
"y 	c #40931F",
"z 	c #56A62B",
"A 	c #6DB138",
"B 	c #6CAD2F",
"C 	c #7DC03C",
"D 	c #6FB53B",
"E 	c #6AB330",
"F 	c #5AA725",
"G 	c #489223",
"H 	c #3C782E",
"I 	c #1B3E1D",
"J 	c #EFEFEF",
"K 	c #113509",
"L 	c #509B34",
"M 	c #51AD26",
"N 	c #63B32C",
"O 	c #7CBE40",
"P 	c #99DA58",
"Q 	c #86CD43",
"R 	c #90D757",
"S 	c #84CC42",
"T 	c #6FBD2C",
"U 	c #57A626",
"V 	c #589D42",
"W 	c #113F10",
"X 	c #FDFDFD",
"Y 	c #2D5822",
"Z 	c #5FAF3C",
"` 	c #69C534",
" .	c #8AD24C",
"..	c #95CC55",
"+.	c #A7E168",
"@.	c #9BE15D",
"#.	c #99D95F",
"$.	c #9CDE56",
"%.	c #84CC3C",
"&.	c #71BF38",
"*.	c #62AD48",
"=.	c #1B5117",
"-.	c #2F5F23",
";.	c #5AAE34",
">.	c #77CF3D",
",.	c #99DB57",
"'.	c #B4E474",
").	c #BAEE7F",
"!.	c #B3F57A",
"~.	c #BBF682",
"{.	c #A9E463",
"].	c #9FE052",
"^.	c #87D04A",
"/.	c #60AB42",
"(.	c #326A2B",
"_.	c #E5E5E5",
":.	c #5C7852",
"<.	c #5C8E37",
"[.	c #95D857",
"}.	c #9EEA56",
"|.	c #A7EF65",
"1.	c #C3FF8F",
"2.	c #C6FE9D",
"3.	c #C8FA97",
"4.	c #B8F677",
"5.	c #A4F05C",
"6.	c #92DE58",
"7.	c #599440",
"8.	c #557754",
"9.	c #7B946D",
"0.	c #558031",
"a.	c #7DB746",
"b.	c #B3F673",
"c.	c #C8FF89",
"d.	c #C7FF8F",
"e.	c #C2F590",
"f.	c #C8FA89",
"g.	c #C7FF7F",
"h.	c #B9FC6F",
"i.	c #83C24D",
"j.	c #568541",
"k.	c #7B957C",
"l.	c #F7F7F7",
"m.	c #9EA1A1",
"n.	c #58724F",
"o.	c #5A843C",
"p.	c #96C962",
"q.	c #C2F57C",
"r.	c #CFFF7C",
"s.	c #DCFF84",
"t.	c #D3FF8F",
"u.	c #BDEF74",
"v.	c #9ECF5C",
"w.	c #5E8532",
"x.	c #546E47",
"y.	c #9EA09A",
"z.	c #E8E8E8",
"A.	c #BCBCBC",
"B.	c #788480",
"C.	c #4D6448",
"D.	c #506F36",
"E.	c #739541",
"F.	c #9CBF57",
"G.	c #B9DC68",
"H.	c #99C067",
"I.	c #5D7835",
"J.	c #556541",
"K.	c #7B817D",
"L.	c #BABABA",
"M.	c #DEDEDE",
"N.	c #B4B4B4",
"O.	c #868F8C",
"P.	c #5B6660",
"Q.	c #465246",
"R.	c #3F4C38",
"S.	c #3B492F",
"T.	c #455A33",
"U.	c #445533",
"V.	c #57604F",
"W.	c #848388",
"X.	c #B3B3B3",
"Y.	c #E0E0E0",
"Z.	c #BDBDBD",
"`.	c #A4A5AC",
" +	c #858793",
".+	c #73767F",
"++	c #6C7079",
"@+	c #6D736F",
"#+	c #8A8E8E",
"$+	c #A2A8A9",
"%+	c #ACACAC",
"&+	c #A6A6A4",
"*+	c #A5A5A5",
"=+	c #A7A7A8",
"-+	c #B0B0B0",
";+	c #D9D9D9",
">+	c #CECECE",
". . . . . . . . . . . . . . . . . . . . . ",
"+ + + + + + + + + + + + + + + + + + + + + ",
"+ + + + + + + + + + + + + + + + + + + + + ",
"@ @ @ @ @ @ @ # $ % & * = - @ @ @ @ @ @ @ ",
"; ; ; ; ; ; > , ' ) ! ~ { ] ^ ; ; ; ; ; ; ",
"/ / / / / ( _ : < [ } | 1 2 3 4 / / / / / ",
"5 5 5 5 6 7 8 9 0 a b c d e f g h 5 5 5 5 ",
"/ / / / i j k l m n o p q r s t u / / / / ",
"v v v v w x y z A B C D E F G H I v v v v ",
"J J J J K L M N O P Q R S T U V W J J J J ",
"X X X X Y Z `  ...+.@.#.$.%.&.*.=.X X X X ",
"J J J J -.;.>.,.'.).!.~.{.].^./.(.J J J J ",
"_._._._.:.<.[.}.|.1.2.3.4.5.6.7.8._._._._.",
"v v v v 9.0.a.b.c.d.e.f.g.h.i.j.k.v v v v ",
"l.l.l.l.m.n.o.p.q.r.s.t.u.v.w.x.y.l.l.l.l.",
"z.z.z.z.A.B.C.D.E.F.G.H.E.I.J.K.L.z.z.z.z.",
"M.M.M.M.M.N.O.P.Q.R.S.T.U.V.W.X.M.M.M.M.M.",
"Y.Y.Y.Y.Y.Y.Z.`. +.+++@+#+$+Z.Y.Y.Y.Y.Y.Y.",
"v v v v v v v L.%+&+*+=+-+A.v v v v v v v ",
";+;+;+;+;+;+;+;+;+;+;+;+;+;+;+;+;+;+;+;+;+",
">+>+>+>+>+>+>+>+>+>+>+>+>+>+>+>+>+>+>+>+>+"};
