/* XPM */
static char * max_press_xpm[] = {
"21 21 196 2",
"  	c None",
". 	c #F3F7FB",
"+ 	c #FFFFFF",
"@ 	c #F0F0F0",
"# 	c #A6A5A4",
"$ 	c #61605E",
"% 	c #3D2324",
"& 	c #2D1515",
"* 	c #392526",
"= 	c #645655",
"- 	c #C2C0C0",
"; 	c #E9E9E9",
"> 	c #786C6C",
", 	c #625253",
"' 	c #8B797B",
") 	c #A79698",
"! 	c #A49195",
"~ 	c #9D898C",
"{ 	c #715C60",
"] 	c #685155",
"^ 	c #8F767A",
"/ 	c #F1F1F1",
"( 	c #906866",
"_ 	c #78464A",
": 	c #976F69",
"< 	c #AE8F82",
"[ 	c #B2A594",
"} 	c #B2A393",
"| 	c #B2A899",
"1 	c #B2998C",
"2 	c #8A6760",
"3 	c #633E3B",
"4 	c #90707B",
"5 	c #FEFEFE",
"6 	c #B3989F",
"7 	c #6D3828",
"8 	c #834E35",
"9 	c #A17454",
"0 	c #B08960",
"a 	c #AD8F62",
"b 	c #A68B5D",
"c 	c #B09164",
"d 	c #AD8B62",
"e 	c #9E7455",
"f 	c #6B412D",
"g 	c #603D34",
"h 	c #BC9CA4",
"i 	c #8A4D52",
"j 	c #874D29",
"k 	c #8B562C",
"l 	c #996630",
"m 	c #9C6E32",
"n 	c #9F7A3B",
"o 	c #9A7838",
"p 	c #9D7736",
"q 	c #996F32",
"r 	c #9A6835",
"s 	c #906039",
"t 	c #5E3821",
"u 	c #954C3D",
"v 	c #EAEAEA",
"w 	c #7B3124",
"x 	c #965C2E",
"y 	c #A1672C",
"z 	c #9A6220",
"A 	c #9F6C25",
"B 	c #A37B32",
"C 	c #9D7730",
"D 	c #9F742C",
"E 	c #A3732B",
"F 	c #9A631C",
"G 	c #9E672B",
"H 	c #7B4E26",
"I 	c #8E2D0A",
"J 	c #EFEFEF",
"K 	c #82371A",
"L 	c #9C6936",
"M 	c #9B631F",
"N 	c #713D00",
"O 	c #693A00",
"P 	c #694200",
"Q 	c #674200",
"R 	c #6A4100",
"S 	c #6F4000",
"T 	c #6F3500",
"U 	c #A86F24",
"V 	c #8F5E2C",
"W 	c #922F06",
"X 	c #FDFDFD",
"Y 	c #914827",
"Z 	c #9E733D",
"` 	c #A17229",
" .	c #6F4400",
"..	c #674400",
"+.	c #644700",
"@.	c #684C03",
"#.	c #6E4D06",
"$.	c #733D00",
"%.	c #AD7725",
"&.	c #A97B42",
"*.	c #A14F1F",
"=.	c #9D5839",
"-.	c #8F6C36",
";.	c #B29046",
">.	c #AE903A",
",.	c #B2A54C",
"'.	c #B2A552",
").	c #B2A659",
"!.	c #B2A65C",
"~.	c #B2994D",
"{.	c #B28F38",
"].	c #B29140",
"^.	c #977138",
"/.	c #9D5D1D",
"(.	c #E5E5E5",
"_.	c #967556",
":.	c #A38A53",
"<.	c #A9934B",
"[.	c #B2A149",
"}.	c #AFA445",
"|.	c #B2AE53",
"1.	c #B2B260",
"2.	c #B2AF59",
"3.	c #B2A04B",
"4.	c #B29341",
"5.	c #B2914A",
"6.	c #826735",
"7.	c #886B59",
"8.	c #9C847A",
"9.	c #6F5C2C",
"0.	c #8B7B40",
"a.	c #B2AD5E",
"b.	c #AFB258",
"c.	c #ADAD54",
"d.	c #B2B158",
"e.	c #B2B263",
"f.	c #B2A862",
"g.	c #977D45",
"h.	c #5D4E26",
"i.	c #9A8779",
"j.	c #F7F7F7",
"k.	c #AAA4A7",
"l.	c #544629",
"m.	c #6A6030",
"n.	c #8A8649",
"o.	c #A9AA60",
"p.	c #B2B26C",
"q.	c #B2B26B",
"r.	c #B2B060",
"s.	c #AAA25B",
"t.	c #988853",
"u.	c #62552E",
"v.	c #454123",
"w.	c #A49D99",
"x.	c #E8E8E8",
"y.	c #BCBCBC",
"z.	c #897D81",
"A.	c #5A5432",
"B.	c #4F4D23",
"C.	c #696A39",
"D.	c #8C905A",
"E.	c #9EA167",
"F.	c #949256",
"G.	c #7B7742",
"H.	c #443F1C",
"I.	c #3E3A23",
"J.	c #807B77",
"K.	c #BABABA",
"L.	c #DEDEDE",
"M.	c #B4B4B4",
"N.	c #8C8889",
"O.	c #626353",
"P.	c #565B3B",
"Q.	c #433453",
"R.	c #494351",
"S.	c #474843",
"T.	c #4A4A42",
"U.	c #625C5C",
"V.	c #8B848B",
"W.	c #B3B3B3",
"X.	c #E0E0E0",
"Y.	c #BDBDBD",
"Z.	c #A5A7AC",
"`.	c #83838D",
" +	c #827E7F",
".+	c #757573",
"++	c #767873",
"@+	c #8D8F8C",
"#+	c #A3AAAA",
"$+	c #ACACAC",
"%+	c #A6A6A4",
"&+	c #A5A5A5",
"*+	c #A7A7A8",
"=+	c #B0B0B0",
"-+	c #D9D9D9",
";+	c #CECECE",
". . . . . . . . . . . . . . . . . . . . . ",
"+ + + + + + + + + + + + + + + + + + + + + ",
"+ + + + + + + + + + + + + + + + + + + + + ",
"@ @ @ @ @ @ @ # $ % & * = - @ @ @ @ @ @ @ ",
"; ; ; ; ; ; > , ' ) ! ~ { ] ^ ; ; ; ; ; ; ",
"/ / / / / ( _ : < [ } | 1 2 3 4 / / / / / ",
"5 5 5 5 6 7 8 9 0 a b c d e f g h 5 5 5 5 ",
"/ / / / i j k l m n o p q r s t u / / / / ",
"v v v v w x y z A B C D E F G H I v v v v ",
"J J J J K L M N O P Q R S T U V W J J J J ",
"X X X X Y Z `  ...+.@.#. .$.%.&.*.X X X X ",
"J J J J =.-.;.>.,.'.).!.~.{.].^./.J J J J ",
"(.(.(.(._.:.<.[.}.|.1.2.3.4.5.6.7.(.(.(.(.",
"v v v v 8.9.0.a.1.b.c.d.e.f.g.h.i.v v v v ",
"j.j.j.j.k.l.m.n.o.p.q.r.s.t.u.v.w.j.j.j.j.",
"x.x.x.x.y.z.A.B.C.D.E.F.G.H.I.J.K.x.x.x.x.",
"L.L.L.L.L.M.N.O.P.Q.R.S.T.U.V.W.L.L.L.L.L.",
"X.X.X.X.X.X.Y.Z.`. +.+++@+#+Y.X.X.X.X.X.X.",
"v v v v v v v K.$+%+&+*+=+y.v v v v v v v ",
"-+-+-+-+-+-+-+-+-+-+-+-+-+-+-+-+-+-+-+-+-+",
";+;+;+;+;+;+;+;+;+;+;+;+;+;+;+;+;+;+;+;+;+"};
