/* XPM */
static char * off_xpm[] = {
"20 20 21 1",
" 	c None",
".	c #6C7F94",
"+	c #6A7D93",
"@	c #60738A",
"#	c #304660",
"$	c #2E445E",
"%	c #243951",
"&	c #5D7188",
"*	c #3E546D",
"=	c #4F647C",
"-	c #697C91",
";	c #7C8DA1",
">	c #5A6E85",
",	c #8E9DAE",
"'	c #5B6F86",
")	c #5E7289",
"!	c #66798F",
"~	c #576B83",
"{	c #61758B",
"]	c #546980",
"^	c #53677F",
"....................",
"++++++++++++++++++++",
"@@@@@@##$%$$#@@@@@@@",
"&&&&&**=-;->**&&&&&&",
"@@@@**>;,,;;>>*@@@@@",
"...#*=--;;;;-=*#....",
"@@@#=>>>>>>>>>=#@@@@",
"'''#>>>----->>=#''''",
")))*----------=*))))",
"+++*----;;;----*++++",
"&&&*>;-;;;;;;-=*&&&&",
"&&&*>;;;;,,;;;>*&&&&",
"'''*=--;,,;,;-=*''''",
"!!!!*=-;;;;;-=*!!!!!",
"'''''#*=--;=*$''''''",
"~~~~~~#$*$$$#~~~~~~~",
">>>>>>>>>>>>>>>>>>>>",
"{{{{{{{{{{{{{{{{{{{{",
"]]]]]]]]]]]]]]]]]]]]",
"^^^^^^^^^^^^^^^^^^^^"};
