/* XPM */
static char * selected_xpm[] = {
"16 16 41 1",
" 	c None",
".	c #FFFFFF",
"+	c #E9ECEE",
"@	c #E8ECEE",
"#	c #E8EBEE",
"$	c #A4B5BF",
"%	c #8EA2AE",
"&	c #E8ECED",
"*	c #D2D9DD",
"=	c #A6B7C0",
"-	c #97AAB5",
";	c #889EAA",
">	c #778F9D",
",	c #8399A6",
"'	c #D1D8DC",
")	c #BBC6CB",
"!	c #BBC5CB",
"~	c #7E95A2",
"{	c #728B99",
"]	c #8198A5",
"^	c #BBC6CC",
"/	c #A5B2BA",
"(	c #879CA9",
"_	c #768E9C",
":	c #6C8594",
"<	c #678190",
"[	c #637D8D",
"}	c #A4B3BA",
"|	c #8E9FA9",
"1	c #7C94A1",
"2	c #718A98",
"3	c #788C97",
"4	c #788C98",
"5	c #7B92A0",
"6	c #778C98",
"7	c #617986",
"8	c #617987",
"9	c #4B6675",
"0	c #4B6676",
"a	c #4A6676",
"b	c #345364",
"                ",
"                ",
"                ",
"      ....      ",
"    +@#$%@+&    ",
"    *==-;>,'    ",
"   )!,~;;{]^^   ",
"   /(>]_:{<[}   ",
"   |(1>::{2<|   ",
"   345>>>5]64   ",
"    72>~>;;8    ",
"    990(%a09    ",
"      bbbb      ",
"                ",
"                ",
"                "};
