/* XPM */
static char * close_unfocus_xpm[] = {
"21 21 165 2",
"  	c None",
". 	c #485867",
"+ 	c #586775",
"@ 	c #6C7F94",
"# 	c #596876",
"$ 	c #6B7E93",
"% 	c #6A7D93",
"& 	c #6C7F95",
"* 	c #6D7F95",
"= 	c #6D8096",
"- 	c #6D8095",
"; 	c #61748B",
"> 	c #687B90",
", 	c #435870",
"' 	c #314862",
") 	c #334962",
"! 	c #283D56",
"~ 	c #293E57",
"{ 	c #2F4560",
"] 	c #455A72",
"^ 	c #687B91",
"/ 	c #5D7188",
"( 	c #62768D",
"_ 	c #4A6077",
": 	c #394F68",
"< 	c #3F556E",
"[ 	c #53687F",
"} 	c #6A7C91",
"| 	c #697B91",
"1 	c #455A73",
"2 	c #374D67",
"3 	c #4A5F78",
"4 	c #5E7189",
"5 	c #5E7188",
"6 	c #66798F",
"7 	c #4C6079",
"8 	c #3A5069",
"9 	c #485E76",
"0 	c #8495A7",
"a 	c #909FB0",
"b 	c #8595A8",
"c 	c #51657D",
"d 	c #4E637B",
"e 	c #4A5F77",
"f 	c #667990",
"g 	c #6E8196",
"h 	c #41566F",
"i 	c #384E68",
"j 	c #445972",
"k 	c #5F7389",
"l 	c #6D8094",
"m 	c #7D8EA2",
"n 	c #8796A9",
"o 	c #8293A6",
"p 	c #798A9E",
"q 	c #485D76",
"r 	c #6F8296",
"s 	c #65788E",
"t 	c #556981",
"u 	c #5E7288",
"v 	c #5D7187",
"w 	c #5F7289",
"x 	c #62758B",
"y 	c #62758C",
"z 	c #536880",
"A 	c #40566F",
"B 	c #354B64",
"C 	c #697C92",
"D 	c #5C6F86",
"E 	c #314761",
"F 	c #4D6179",
"G 	c #5A6E85",
"H 	c #576B82",
"I 	c #63778D",
"J 	c #62768B",
"K 	c #576C83",
"L 	c #586D84",
"M 	c #465C73",
"N 	c #344A63",
"O 	c #60738A",
"P 	c #5B6F86",
"Q 	c #5D7289",
"R 	c #5B6E85",
"S 	c #65788D",
"T 	c #697C91",
"U 	c #687A90",
"V 	c #64778C",
"W 	c #5D7288",
"X 	c #445A72",
"Y 	c #3E536C",
"Z 	c #5E7289",
"` 	c #667A90",
" .	c #697C93",
"..	c #415770",
"+.	c #6B7D92",
"@.	c #6A7D92",
"#.	c #677A8F",
"$.	c #75869B",
"%.	c #75879B",
"&.	c #66798E",
"*.	c #677B91",
"=.	c #718398",
"-.	c #6D7F94",
";.	c #7A8BA0",
">.	c #7E8EA2",
",.	c #728499",
"'.	c #546880",
").	c #425871",
"!.	c #5C7087",
"~.	c #4F647C",
"{.	c #798B9F",
"].	c #77899C",
"^.	c #7A8B9F",
"/.	c #7C8CA1",
"(.	c #7F90A3",
"_.	c #8696A8",
":.	c #7C8EA1",
"<.	c #495E77",
"[.	c #415771",
"}.	c #5B6F87",
"|.	c #3D536C",
"1.	c #4D637B",
"2.	c #708298",
"3.	c #78899D",
"4.	c #8091A4",
"5.	c #8D9CAD",
"6.	c #8E9EAE",
"7.	c #8192A5",
"8.	c #708297",
"9.	c #4D627B",
"0.	c #3E556D",
"a.	c #60748B",
"b.	c #445A73",
"c.	c #5A6E84",
"d.	c #65798E",
"e.	c #8898AA",
"f.	c #8C9CAD",
"g.	c #7F91A4",
"h.	c #6F8297",
"i.	c #566B82",
"j.	c #50657C",
"k.	c #64778E",
"l.	c #64778D",
"m.	c #4C6179",
"n.	c #3E546D",
"o.	c #53677F",
"p.	c #75879C",
"q.	c #77889D",
"r.	c #677A90",
"s.	c #4D637A",
"t.	c #596D84",
"u.	c #324862",
"v.	c #3A506A",
"w.	c #64768C",
"x.	c #394E68",
"y.	c #304761",
"z.	c #576B83",
"A.	c #5E728A",
"B.	c #42576F",
"C.	c #314760",
"D.	c #3B516B",
"E.	c #2E445E",
"F.	c #435872",
"G.	c #566A83",
"H.	c #60748A",
". . . . . + @ @ @ @ @ @ @ @ @ @ @ @ @ @ @ ",
". . # $ $ % & * & = = * - & % $ $ $ $ $ $ ",
". # ; ; ; ; > , ' ) ! ~ { ] ^ ; ; ; ; ; ; ",
". / / / / ( _ : < [ } | 1 2 3 ( / / / / / ",
". 4 4 5 6 7 8 9 % 0 a b | c d e f 5 4 4 4 ",
"+ $ $ g h i j k l m n o p k q 2 j r $ $ $ ",
"s s s ^ ) h t u v w x y x v z A B C s s s ",
"D D D w E F G H k I J J 5 K L M N O D D D ",
"P P P Q 8 R S y > T > > U V W X Y Z P P P ",
"` ` `  ...J +.@.#.g $.%.&.} C H j % ` ` ` ",
"s s s *.A K =.@.-.;.>.m ,.r s '.).^ s s s ",
"!.!.!.Z A ~.{.].^./.(._.m :.T <.[.w !.!.!.",
"}.}.}.Z |.1.2.3.{.4.5.6.7.m 8.9.0.Z }.}.}.",
"k k k a.d b.c.d.].e.f.g.e.h.i.b.j.a.k k k ",
"k.k.k.l.% m.n.o.$ p.q.m r.j.|.s.@.l.k.k.k.",
"t.t.t.t.t.a.n.u.v.[ c.w.x.y.< ; L t.t.t.t.",
"z.z.z.z.z.z.A.B.C.D.i E.u.F.A.G.z.z.z.z.z.",
"P P P P P P P u k u Z k k 5 P P P P P P P ",
"H.H.H.H.H.H.H.H.H.H.H.H.H.H.H.H.H.H.H.H.H.",
"[ [ [ [ [ [ [ [ [ [ [ [ [ [ [ [ [ [ [ [ [ ",
"o.o.o.o.o.o.o.o.o.o.o.o.o.o.o.o.o.o.o.o.o."};
