/* XPM */
static char * stick_xpm[] = {
"21 21 140 2",
"  	c None",
". 	c #485867",
"+ 	c #C2C9D0",
"@ 	c #F3F7FB",
"# 	c #CACFD3",
"$ 	c #FFFFFF",
"% 	c #C0C4C9",
"& 	c #F0F0F0",
"* 	c #A4A4A3",
"= 	c #5D5D5C",
"- 	c #292929",
"; 	c #0F0F0F",
"> 	c #2C2C2C",
", 	c #5D5D5D",
"' 	c #AEADAD",
") 	c #E9E9E9",
"! 	c #696769",
"~ 	c #585858",
"{ 	c #9C9C9C",
"] 	c #C5C5C5",
"^ 	c #D7D7D7",
"/ 	c #CACACA",
"( 	c #A0A0A0",
"_ 	c #4B4B4B",
": 	c #6B6D6E",
"< 	c #F1F1F1",
"[ 	c #747474",
"} 	c #5B5B5B",
"| 	c #A9A9A9",
"1 	c #DDDDDD",
"2 	c #E8E8E8",
"3 	c #F9F9F9",
"4 	c #ECECEC",
"5 	c #D9D9D9",
"6 	c #AFAFAF",
"7 	c #757576",
"8 	c #FEFEFE",
"9 	c #9C9C9B",
"0 	c #414141",
"a 	c #7B7B7B",
"b 	c #B9B9B9",
"c 	c #D4D4D4",
"d 	c #D3D3D3",
"e 	c #BBBBBB",
"f 	c #777777",
"g 	c #474747",
"h 	c #959494",
"i 	c #4E4E4E",
"j 	c #6C6C6C",
"k 	c #ABABAB",
"l 	c #A2A2A2",
"m 	c #B2B2B2",
"n 	c #B5B5B5",
"o 	c #C1C1C1",
"p 	c #BABABA",
"q 	c #A6A6A6",
"r 	c #737373",
"s 	c #EAEAEA",
"t 	c #454545",
"u 	c #999999",
"v 	c #AAAAAA",
"w 	c #B0B0B0",
"x 	c #C0C0C0",
"y 	c #C7C7C7",
"z 	c #C2C2C2",
"A 	c #B6B6B6",
"B 	c #8F8F8F",
"C 	c #EFEFEF",
"D 	c #595959",
"E 	c #C9C9C9",
"F 	c #CFCFCF",
"G 	c #D5D5D5",
"H 	c #D8D8D8",
"I 	c #B1B1B1",
"J 	c #5E5E5E",
"K 	c #FDFDFD",
"L 	c #676767",
"M 	c #E2E2E2",
"N 	c #E6E6E6",
"O 	c #E0E0E0",
"P 	c #D2D2D2",
"Q 	c #D0D0D0",
"R 	c #C3C3C3",
"S 	c #626262",
"T 	c #6D6D6D",
"U 	c #D1D1D1",
"V 	c #EEEEEE",
"W 	c #F3F3F3",
"X 	c #F7F7F7",
"Y 	c #F5F5F5",
"Z 	c #DADADA",
"` 	c #767676",
" .	c #E5E5E5",
"..	c #7C7C7C",
"+.	c #E7E7E7",
"@.	c #FBFBFB",
"#.	c #FAFAFA",
"$.	c #EDEDED",
"%.	c #A7A7A7",
"&.	c #7A7A7A",
"*.	c #888888",
"=.	c #898989",
"-.	c #CCCCCC",
";.	c #F6F6F6",
">.	c #FCFCFC",
",.	c #878787",
"'.	c #8C8C8C",
").	c #9E9E9E",
"!.	c #6B6B6B",
"~.	c #E4E4E4",
"{.	c #939393",
"].	c #797A7A",
"^.	c #565656",
"/.	c #9F9F9F",
"(.	c #727272",
"_.	c #5A5A5A",
":.	c #7E7F7E",
"<.	c #DEDEDE",
"[.	c #B4B4B4",
"}.	c #898B8B",
"|.	c #4D4D4D",
"1.	c #434343",
"2.	c #424242",
"3.	c #4A4A4A",
"4.	c #656565",
"5.	c #8A8A8B",
"6.	c #B3B3B3",
"7.	c #BDBDBD",
"8.	c #A2A3A7",
"9.	c #8E8E92",
"0.	c #7F8080",
"a.	c #7F7F7F",
"b.	c #8F9090",
"c.	c #A2A6A6",
"d.	c #ACACAC",
"e.	c #A6A6A4",
"f.	c #A5A5A5",
"g.	c #A7A7A8",
"h.	c #BCBCBC",
"i.	c #CECECE",
". . . . . + @ @ @ @ @ @ @ @ @ @ @ @ @ @ @ ",
". . # $ $ $ $ $ $ $ $ $ $ $ $ $ $ $ $ $ $ ",
". % $ $ $ $ $ $ $ $ $ $ $ $ $ $ $ $ $ $ $ ",
". & & & & & & * = - ; > , ' & & & & & & & ",
". ) ) ) ) ) ! ~ { ] ^ / ( _ : ) ) ) ) ) ) ",
"+ < < < < [ } | 1 2 3 4 5 6 , 7 < < < < < ",
"8 8 8 8 9 0 a b c 5 5 ^ d e f g h 8 8 8 8 ",
"< < < < i j k l m e n o p q k r i < < < < ",
"s s s s t u v w x x y z A A q B _ s s s s ",
"C C C C D w k E F G H 5 F F m I J C C C C ",
"K K K K L x E H 5 ) M N O P Q R S K K K K ",
"C C C C T b U M V W X Y C N Z A ` C C C C ",
" . . . ...| O +.@.$ #.$ #.V $.%.&. . . . .",
"s s s s *.=.-.;.K >.$ ;.$ K / ,.'.s s s s ",
"X X X X ).!.B Z @.$ $ $ $ ~.{.T 9 X X X X ",
"2 2 2 2 e ].^.[ q U s P /.(._.:.p 2 2 2 2 ",
"<.<.<.<.<.[.}.S |.0 1.2.3.4.5.6.<.<.<.<.<.",
"O O O O O O 7.8.9.0.` a.b.c.7.O O O O O O ",
"s s s s s s s p d.e.f.g.w h.s s s s s s s ",
"5 5 5 5 5 5 5 5 5 5 5 5 5 5 5 5 5 5 5 5 5 ",
"i.i.i.i.i.i.i.i.i.i.i.i.i.i.i.i.i.i.i.i.i."};
