/* XPM */
static char * stuck_unfocus_xpm[] = {
"21 21 178 2",
"  	c None",
". 	c #485867",
"+ 	c #586775",
"@ 	c #6C7F94",
"# 	c #596876",
"$ 	c #6B7F94",
"% 	c #61748B",
"& 	c #667A8F",
"* 	c #5D7188",
"= 	c #5F7389",
"- 	c #5D5D5C",
"; 	c #292929",
"> 	c #0F0F0F",
", 	c #2C2C2C",
"' 	c #5D5D5D",
") 	c #5E7189",
"! 	c #5E7289",
"~ 	c #696769",
"{ 	c #443751",
"] 	c #75737F",
"^ 	c #8D8D94",
"/ 	c #908E92",
"( 	c #8B868A",
"_ 	c #6A626B",
": 	c #423748",
"< 	c #6B6D6E",
"[ 	c #6B7E93",
"} 	c #63778D",
"| 	c #747474",
"1 	c #5B5B5B",
"2 	c #766388",
"3 	c #A198B1",
"4 	c #A99FB2",
"5 	c #A499AF",
"6 	c #A89AB1",
"7 	c #978CA8",
"8 	c #6B6684",
"9 	c #757576",
"0 	c #697D92",
"a 	c #5C6671",
"b 	c #462763",
"c 	c #5B3A76",
"d 	c #7B6292",
"e 	c #88749D",
"f 	c #937CAB",
"g 	c #9E85B2",
"h 	c #9379A8",
"i 	c #81659B",
"j 	c #8065A1",
"k 	c #523A70",
"l 	c #3A2550",
"m 	c #59626B",
"n 	c #5F738A",
"o 	c #5A595A",
"p 	c #60377F",
"q 	c #5E357A",
"r 	c #653F80",
"s 	c #765690",
"t 	c #7B5596",
"u 	c #734E8A",
"v 	c #805896",
"w 	c #7A5297",
"x 	c #6C4490",
"y 	c #502C77",
"z 	c #3E205E",
"A 	c #5A5A5A",
"B 	c #5B7087",
"C 	c #656666",
"D 	c #5D2D7A",
"E 	c #764094",
"F 	c #7D4D9C",
"G 	c #653D82",
"H 	c #55266E",
"I 	c #401253",
"J 	c #572767",
"K 	c #744488",
"L 	c #714190",
"M 	c #673A8D",
"N 	c #5D3581",
"O 	c #707172",
"P 	c #723E8C",
"Q 	c #8649A5",
"R 	c #844DA3",
"S 	c #623480",
"T 	c #4E195F",
"U 	c #562262",
"V 	c #4E1A55",
"W 	c #673171",
"X 	c #8C57A3",
"Y 	c #8453A6",
"Z 	c #6B3F8F",
"` 	c #6A7E93",
" .	c #7C7D7E",
"..	c #804EA4",
"+.	c #8B56AE",
"@.	c #8A5BA3",
"#.	c #572C62",
"$.	c #522A64",
"%.	c #5F3569",
"&.	c #522455",
"*.	c #6B3971",
"=.	c #9965AB",
"-.	c #8A57A5",
";.	c #7C4A99",
">.	c #86888A",
",.	c #7E4CA0",
"'.	c #9865B2",
").	c #A375B2",
"!.	c #764B7E",
"~.	c #603B6C",
"{.	c #69426F",
"].	c #643A67",
"^.	c #724479",
"/.	c #A473B2",
"(.	c #9A6BB2",
"_.	c #794B90",
":.	c #87898A",
"<.	c #929496",
"[.	c #784994",
"}.	c #9467AD",
"|.	c #B184B2",
"1.	c #996F9B",
"2.	c #7B5D80",
"3.	c #6E4D6E",
"4.	c #8C678D",
"5.	c #9A73A3",
"6.	c #AC80B2",
"7.	c #9C73B2",
"8.	c #734E83",
"9.	c #929596",
"0.	c #795091",
"a.	c #845E94",
"b.	c #AB84B2",
"c.	c #B28FB2",
"d.	c #B29CB2",
"e.	c #A691A8",
"f.	c #B29BB2",
"g.	c #AD8CB2",
"h.	c #B18EB2",
"i.	c #826293",
"j.	c #543A5C",
"k.	c #64788E",
"l.	c #785983",
"m.	c #74557F",
"n.	c #8B6C8F",
"o.	c #AD8DA7",
"p.	c #AD9BA9",
"q.	c #B2A0AD",
"r.	c #B29DAD",
"s.	c #9F87A3",
"t.	c #90779B",
"u.	c #5C4869",
"v.	c #503E54",
"w.	c #5D7289",
"x.	c #745D78",
"y.	c #5F485E",
"z.	c #675362",
"A.	c #908390",
"B.	c #867782",
"C.	c #81727B",
"D.	c #71606F",
"E.	c #534359",
"F.	c #50445A",
"G.	c #586D84",
"H.	c #626262",
"I.	c #4D4D4D",
"J.	c #414141",
"K.	c #434343",
"L.	c #424242",
"M.	c #4A4A4A",
"N.	c #656565",
"O.	c #5A6E85",
"P.	c #596D84",
"Q.	c #61758B",
"R.	c #546980",
"S.	c #596E85",
"T.	c #53677F",
"U.	c #536880",
". . . . . + @ @ @ @ @ @ @ @ @ @ @ @ @ @ @ ",
". . # $ $ $ $ $ $ $ $ $ $ $ $ $ $ $ $ $ $ ",
". # % & & & & & & & & & & & & & & & & & & ",
". * * = = = = = - ; > , ' = = = = = = = = ",
". ) ) ! ! ! ~ { ] ^ / ( _ : < ! ! ! ! ! ! ",
"+ [ [ } } | 1 2 3 4 5 6 7 8 ' 9 } } } } } ",
"0 0 0 0 a b c d e f g h i j k l m 0 0 0 0 ",
"n n n n o p q r s t u v w x y z A n n n n ",
"B B B B C D E F G H I J K L M N C B B B B ",
"n n n n O P Q R S T U V W X Y Z O n n n n ",
"` ` ` `  ...+.@.#.$.%.&.*.=.-.;. .` ` ` ` ",
"* * * * >.,.'.).!.~.{.].^./.(._.:.* * * * ",
"* * * * <.[.}.|.1.2.3.4.5.6.7.8.9.* * * * ",
"B B B B a 0.a.b.c.d.e.f.g.h.i.j.a B B B B ",
"k.k.k.k.k.l.m.n.o.p.q.r.s.t.u.v.k.k.k.k.k.",
"w.w.w.w.w.w.x.y.z.A.B.C.D.E.F.w.w.w.w.w.w.",
"G.G.G.G.G.G.G.H.I.J.K.L.M.N.G.G.G.G.G.G.G.",
"O.O.O.O.O.O.O.O.O.O.O.O.O.O.O.O.O.O.O.O.P.",
"Q.Q.Q.Q.Q.Q.Q.Q.Q.Q.Q.Q.Q.Q.Q.Q.Q.Q.Q.Q.! ",
"R.R.R.R.R.R.R.R.R.R.R.R.R.R.R.R.R.R.R.R.S.",
"T.T.T.T.T.T.T.T.T.T.T.T.T.T.T.T.T.T.T.T.U."};
