/* XPM */
static char * stuck_xpm[] = {
"21 21 199 2",
"  	c None",
". 	c #485867",
"+ 	c #C2C9D0",
"@ 	c #F3F7FB",
"# 	c #CACFD3",
"$ 	c #FFFFFF",
"% 	c #C0C4C9",
"& 	c #F0F0F0",
"* 	c #A4A4A2",
"= 	c #5D5D5C",
"- 	c #292929",
"; 	c #0F0F0F",
"> 	c #2C2C2C",
", 	c #5D5D5D",
"' 	c #AAAAAA",
") 	c #E9E9E9",
"! 	c #696769",
"~ 	c #443751",
"{ 	c #75737F",
"] 	c #8D8D94",
"^ 	c #908E92",
"/ 	c #8B868A",
"( 	c #6A626B",
"_ 	c #423748",
": 	c #6B6D6E",
"< 	c #F1F1F1",
"[ 	c #747474",
"} 	c #5B5B5B",
"| 	c #766388",
"1 	c #A198B1",
"2 	c #A99FB2",
"3 	c #A499AF",
"4 	c #A89AB1",
"5 	c #A191AE",
"6 	c #6F5E80",
"7 	c #757576",
"8 	c #FEFEFE",
"9 	c #9C9C9B",
"0 	c #462763",
"a 	c #5B3A76",
"b 	c #7B6292",
"c 	c #88749D",
"d 	c #937CAB",
"e 	c #9E85B2",
"f 	c #9379A8",
"g 	c #81659B",
"h 	c #8065A1",
"i 	c #523A70",
"j 	c #3A2550",
"k 	c #949494",
"l 	c #4E4E4E",
"m 	c #60377F",
"n 	c #5E357A",
"o 	c #653F80",
"p 	c #765690",
"q 	c #7B5596",
"r 	c #734E8A",
"s 	c #805896",
"t 	c #7A5297",
"u 	c #6C4490",
"v 	c #502C77",
"w 	c #3E205E",
"x 	c #EAEAEA",
"y 	c #454545",
"z 	c #5D2D7A",
"A 	c #764094",
"B 	c #7D4D9C",
"C 	c #653D82",
"D 	c #55266E",
"E 	c #401253",
"F 	c #572767",
"G 	c #744488",
"H 	c #714190",
"I 	c #673A8D",
"J 	c #5D3581",
"K 	c #4B4B4B",
"L 	c #EFEFEF",
"M 	c #595959",
"N 	c #723E8C",
"O 	c #8649A5",
"P 	c #844DA3",
"Q 	c #623480",
"R 	c #4E195F",
"S 	c #562262",
"T 	c #4E1A55",
"U 	c #673171",
"V 	c #8C57A3",
"W 	c #8453A6",
"X 	c #6B3F8F",
"Y 	c #5E5E5E",
"Z 	c #FDFDFD",
"` 	c #676767",
" .	c #804EA4",
"..	c #8B56AE",
"+.	c #8A5BA3",
"@.	c #572C62",
"#.	c #522A64",
"$.	c #5F3569",
"%.	c #522455",
"&.	c #6B3971",
"*.	c #9965AB",
"=.	c #8A57A5",
"-.	c #7C4A99",
";.	c #626262",
">.	c #6D6D6D",
",.	c #7E4CA0",
"'.	c #9865B2",
").	c #A375B2",
"!.	c #764B7E",
"~.	c #603B6C",
"{.	c #69426F",
"].	c #643A67",
"^.	c #724479",
"/.	c #A473B2",
"(.	c #9A6BB2",
"_.	c #794B90",
":.	c #767676",
"<.	c #E5E5E5",
"[.	c #7C7C7C",
"}.	c #784994",
"|.	c #9467AD",
"1.	c #B184B2",
"2.	c #996F9B",
"3.	c #7B5D80",
"4.	c #6E4D6E",
"5.	c #8C678D",
"6.	c #9A73A3",
"7.	c #AC80B2",
"8.	c #9C73B2",
"9.	c #734E83",
"0.	c #7A7A7A",
"a.	c #888888",
"b.	c #795091",
"c.	c #845E94",
"d.	c #AB84B2",
"e.	c #B28FB2",
"f.	c #B29CB2",
"g.	c #B096AD",
"h.	c #B29BB2",
"i.	c #AD8CB2",
"j.	c #B18EB2",
"k.	c #826293",
"l.	c #543A5C",
"m.	c #8C8C8C",
"n.	c #F7F7F7",
"o.	c #9E9E9E",
"p.	c #785983",
"q.	c #74557F",
"r.	c #8B6C8F",
"s.	c #AD8DA7",
"t.	c #AD9BA9",
"u.	c #B2A0AD",
"v.	c #B29DAD",
"w.	c #9F87A3",
"x.	c #90779B",
"y.	c #5C4869",
"z.	c #503E54",
"A.	c #E8E8E8",
"B.	c #C9C9C9",
"C.	c #797A7A",
"D.	c #745D78",
"E.	c #5F485E",
"F.	c #675362",
"G.	c #908390",
"H.	c #867782",
"I.	c #81727B",
"J.	c #71606F",
"K.	c #534359",
"L.	c #50445A",
"M.	c #7E7F7E",
"N.	c #C8C8C8",
"O.	c #DEDEDE",
"P.	c #CDCDCD",
"Q.	c #898B8B",
"R.	c #4D4D4D",
"S.	c #414141",
"T.	c #434343",
"U.	c #424242",
"V.	c #4A4A4A",
"W.	c #656565",
"X.	c #8A8A8B",
"Y.	c #CCCCCC",
"Z.	c #E0E0E0",
"`.	c #C7C7C7",
" +	c #A5A6AA",
".+	c #8E8E92",
"++	c #7F8080",
"@+	c #7F7F7F",
"#+	c #8F9090",
"$+	c #A4A8A9",
"%+	c #BABABA",
"&+	c #ACACAC",
"*+	c #A6A6A4",
"=+	c #A5A5A5",
"-+	c #A7A7A8",
";+	c #B0B0B0",
">+	c #BCBCBC",
",+	c #D9D9D9",
"'+	c #CECECE",
". . . . . + @ @ @ @ @ @ @ @ @ @ @ @ @ @ @ ",
". . # $ $ $ $ $ $ $ $ $ $ $ $ $ $ $ $ $ $ ",
". % $ $ $ $ $ $ $ $ $ $ $ $ $ $ $ $ $ $ $ ",
". & & & & & & * = - ; > , ' & & & & & & & ",
". ) ) ) ) ) ! ~ { ] ^ / ( _ : ) ) ) ) ) ) ",
"+ < < < < [ } | 1 2 3 4 5 6 , 7 < < < < < ",
"8 8 8 8 9 0 a b c d e f g h i j k 8 8 8 8 ",
"< < < < l m n o p q r s t u v w l < < < < ",
"x x x x y z A B C D E F G H I J K x x x x ",
"L L L L M N O P Q R S T U V W X Y L L L L ",
"Z Z Z Z `  ...+.@.#.$.%.&.*.=.-.;.Z Z Z Z ",
"L L L L >.,.'.).!.~.{.].^./.(._.:.L L L L ",
"<.<.<.<.[.}.|.1.2.3.4.5.6.7.8.9.0.<.<.<.<.",
"x x x x a.b.c.d.e.f.g.h.i.j.k.l.m.x x x x ",
"n.n.n.n.o.p.q.r.s.t.u.v.w.x.y.z.9 n.n.n.n.",
"A.A.A.A.B.C.D.E.F.G.H.I.J.K.L.M.N.A.A.A.A.",
"O.O.O.O.O.P.Q.;.R.S.T.U.V.W.X.Y.O.O.O.O.O.",
"Z.Z.Z.Z.Z.Z.`. +.+++:.@+#+$+B.Z.Z.Z.Z.Z.Z.",
"x x x x x x x %+&+*+=+-+;+>+x x x x x x x ",
",+,+,+,+,+,+,+,+,+,+,+,+,+,+,+,+,+,+,+,+,+",
"'+'+'+'+'+'+'+'+'+'+'+'+'+'+'+'+'+'+'+'+'+"};
