/* XPM */
static char * title_inactive1_xpm[] = {
"5 20 13 1",
" 	c None",
".	c #6C7F94",
"+	c #6A7E93",
"@	c #60748A",
"#	c #5D7188",
"$	c #5B7087",
"%	c #5E7289",
"&	c #66798F",
"*	c #576C83",
"=	c #5A6E85",
"-	c #61758B",
";	c #546981",
">	c #53687F",
".....",
"+++++",
"@@@@@",
"#####",
"@@@@@",
".....",
"@@@@@",
"$$$$$",
"%%%%%",
"+++++",
"#####",
"#####",
"$$$$$",
"&&&&&",
"$$$$$",
"*****",
"=====",
"-----",
";;;;;",
">>>>>"};
